<svg id="Layer_2" data-name="Layer 2" xmlns="http://www.w3.org/2000/svg" viewBox="0 0 324.36 324.15"><defs><style>.cls-1{font-size:23px;font-family:MyriadPro-Regular, Myriad Pro;}.cls-1,.cls-3{fill:#5ab1c7;}.cls-2{fill:#fff;}.cls-4{fill:#bd9679;}.cls-5{fill:#cfa585;}.cls-6{fill:#e3b592;}.cls-7{fill:#494a70;}.cls-8{fill:#fac7a0;}.cls-9{fill:#d6b398;}</style></defs><text class="cls-1" transform="matrix(-0.64, -0.77, 0.77, -0.64, 89.26, 226.55)">I</text><text class="cls-1" transform="matrix(-0.54, -0.84, 0.84, -0.54, 85.69, 222.91)">M</text><text class="cls-1" transform="matrix(-0.38, -0.93, 0.93, -0.38, 75.96, 207.96)">M</text><text class="cls-1" transform="translate(69.46 191.13) rotate(-105.4)">I</text><text class="cls-1" transform="translate(67.85 186.24) rotate(-99.61)">G</text><text class="cls-1" transform="translate(65.51 172.08) rotate(-91.88)">R</text><text class="cls-1" transform="translate(65.03 160.09) rotate(-84.29)">A</text><text class="cls-1" transform="translate(66.17 148.24) rotate(-78.01)">T</text><text class="cls-1" transform="matrix(0.29, -0.96, 0.96, 0.29, 68.59, 137.39)">I</text><text class="cls-1" transform="translate(69.78 132.41) rotate(-67.01)">O</text><text class="cls-1" transform="translate(75.74 118.33) rotate(-58.12)">N</text><text class="cls-1" transform="translate(83.73 105.93) rotate(-52.45)"> </text><text class="cls-1" transform="matrix(0.67, -0.74, 0.74, 0.67, 85.86, 102.82)">V</text><text class="cls-1" transform="matrix(0.73, -0.68, 0.68, 0.73, 94.35, 93.65)">I</text><text class="cls-1" transform="translate(98.07 90.03) rotate(-37.89)">S</text><text class="cls-1" transform="matrix(0.86, -0.51, 0.51, 0.86, 106.58, 83.26)">A</text><text class="cls-1" transform="translate(118.48 76.46) rotate(-25.14)"> </text><text class="cls-1" transform="translate(122.48 74.33) rotate(-19.72)">A</text><text class="cls-1" transform="matrix(0.98, -0.22, 0.22, 0.98, 135.32, 69.79)">S</text><text class="cls-1" transform="translate(146 67.4) rotate(-6.02)">S</text><text class="cls-1" transform="translate(156.97 66.36) rotate(-1.24)">I</text><text class="cls-1" transform="translate(162.14 66.11) rotate(3.54)">S</text><text class="cls-1" transform="matrix(0.98, 0.17, -0.17, 0.98, 173.05, 66.76)">T</text><text class="cls-1" transform="translate(182.25 68.19) rotate(16.37)">A</text><text class="cls-1" transform="matrix(0.91, 0.42, -0.42, 0.91, 195.27, 71.94)">N</text><text class="cls-1" transform="matrix(0.84, 0.54, -0.54, 0.84, 208.52, 78.09)">C</text><text class="cls-1" transform="translate(219.31 85.13) rotate(39.78)">E</text><text class="cls-1" transform="matrix(0.71, 0.7, -0.7, 0.71, 227.69, 92.27)"> </text><text class="cls-1" transform="translate(231.1 95.28) rotate(49.88)">A</text><text class="cls-1" transform="translate(239.89 105.6) rotate(58.28)">N</text><text class="cls-1" transform="translate(247.6 117.99) rotate(67.04)">D</text><text class="cls-1" transform="translate(253.21 131.84) rotate(72.81)"> </text><text class="cls-1" transform="translate(254.69 136.16) rotate(77.42)">S</text><text class="cls-1" transform="translate(257.09 146.81) rotate(83.85)">E</text><text class="cls-1" transform="matrix(-0.01, 1, -1, -0.01, 258.32, 157.63)">R</text><text class="cls-1" transform="matrix(-0.14, 0.99, -0.99, -0.14, 258.21, 169.91)">V</text><text class="cls-1" transform="translate(256.33 182.24) rotate(103.22)">I</text><text class="cls-1" transform="translate(255.35 187.3) rotate(108.63)">C</text><text class="cls-1" transform="matrix(-0.43, 0.9, -0.9, -0.43, 251.2, 199.51)">E</text><text class="cls-1" transform="translate(246.49 209.34) rotate(122.22)">S</text><path class="cls-2" d="M1125.25,296.25c3.26,52.37-42.53,95-95,95a95,95,0,0,1-95-95c0-52.47,42.53-94.75,95-95C1083,201,1122,244,1125.25,296.25Z" transform="translate(-867.71 -133.7)"/><path class="cls-3" d="M1090.07,245.55c1,.53,1.88,1.15,2.89,1.59s.93,0,.84-.22l.23.3a.39.39,0,0,1,.35-.4l0-.06c-.1-.62-.1-.62.34-1.14-.07.4.07.81,0,1.21l-.18.06h0c.14.59.12.64.07.84a.34.34,0,0,1-.17,0v0c.29.39.79.49,1.14.79a2.42,2.42,0,0,1-1.64,2c1.69,1.42,2.94,3.83,4.65,7.17a1.24,1.24,0,0,1-.14-.36s1.59,2.24,1.57,3.44c0,0,0,0-.06.06-.51-.3-.44-1-.83-1.34a.47.47,0,0,1-.06.09c0,.2.17.37.2.57-.15-.13-.15-.13-.26-.13,0,.33.26.63.13,1-.17-.05-.57-.38-.36-.65a.75.75,0,0,0-.17-.1c-.09.11-.16.2.09.8a1.28,1.28,0,0,0-.5,0H1098a1,1,0,0,1-.52-.1,3.62,3.62,0,0,1,0,1.34h0c-.17.76-.58.19-.71,0l-.39-.63.12.63,0,.15.18,1.08c-.34-.25-.49-.29-.59-.16a1.17,1.17,0,0,0-.06.47,1.91,1.91,0,0,1,0,.68,3.24,3.24,0,0,0-1.68-1.16c.53,0,.75-.35,1.05-1.06s.37-.87.69-1.1c-.73-.91-3,0-3.34.84a1.38,1.38,0,0,1,.49.26,6.94,6.94,0,0,1,1.91,3.4c.18.94-.23.8-.34.71a15.39,15.39,0,0,1-1.95-2.46c0-.05,0-.05-.07-.05s0,.05,0,.28a1.6,1.6,0,0,0-.5-.71,1,1,0,0,1-.3-1.17c.23-.72,1.47-4.24,3.77-2.92-1.33-2.58-.75-2.59-.41-2.59.69,0,.7-3.19-1.85-5.61a8,8,0,0,1,1,.64,10.63,10.63,0,0,0-.7-.92.62.62,0,0,1,0,.09c-.08.08-.13.13-.49,0,0,0-2.73-1.38-1.18-2.22a1.1,1.1,0,0,1-.51-.39c-.48-.75-.75-1.61-1.22-2.36ZM992.8,214.29a4.84,4.84,0,0,0,1.29-.55c.87-.44,1-.49,1.15-.45s0,.25-.66.61c.14.08.33.07.87-.05a5.44,5.44,0,0,1,.67-.11c.08-.26.1-.33,0-.48s-.42-.24-.62-.38a15.32,15.32,0,0,0,2.35-.26c1-.16.68-.7.67-.71a1.18,1.18,0,0,0-.54-.07,6.69,6.69,0,0,0-2.21.51v0a3.15,3.15,0,0,0-.43.05c-.06,0-.06.11-.14.12a.79.79,0,0,0,.29,0l-.19.08c-.26-.13-.51,0-.86.32,0-.16-.25-.28-.11-.45a1.08,1.08,0,0,1-.78.11.15.15,0,0,0-.13,0c-.15.09-.2.3-.37.37,0-.09,0-.09,0-.14s-.31.29-.26.37.14,0,.22-.17c.39.12.8-.06,1.18.1-1.77.68-1.77.68-1.84.81S992.8,214.29,992.8,214.29Zm-22.62,8.46c.56-.36,3.13-2.12,3.16-2.13a.38.38,0,0,0-.09.09c.28,0,.35-.05,1.21-.54h0c.84-.53,2-.47,2.56-1.51a3.79,3.79,0,0,0-.66.18c.42-.25.84-.5,1.27-.73-.16.17-.35.31-.52.47a4.39,4.39,0,0,0,1.26-.68,1.34,1.34,0,0,0-.27.13c.26-.16.53-.3.78-.47l-.27.14a12.54,12.54,0,0,1,1.14-1,.44.44,0,0,0,.57-.25l0,.12c.41.13.61-.26.93-.36a.82.82,0,0,0-.46.15,2.71,2.71,0,0,1,1.33-.57c.73-.24,1.2-.89,1.87-1.22l-.12,0c0-.05,0-.1,0-.15.45-.27,1-.17,1.44-.54h-.12a2.05,2.05,0,0,0,.46-.25c-.1,0-.1,0-.5.12,1.57-.83,3.3-1.24,4.92-1.92l.37-.16c-.61-.16-.61-.16-2.63.56.61-.93,2.21-.12,2.58-1.47a.8.8,0,0,0-.3-.06,6.64,6.64,0,0,0-1.29.33l-.1,0,0,0h0l-.07,0,0,0,0,0h0a.67.67,0,0,1,.12-.06,3.83,3.83,0,0,0-1.44.56,2.3,2.3,0,0,1,.4-.27c-.19.07-.37.18-.55.26l.11-.07-.3.14.31-.16-.77.38a95.69,95.69,0,0,0-12.44,7.73c-2.22,1.62-4.35,3.34-6.42,5.15.93-.8,2.69-2.28,3.22-2.62C970.71,222.35,970.43,222.53,970.18,222.75Zm120,21.77a9.51,9.51,0,0,0-1.77-1.81c-1.13-1-1.35-1.25-1.45-1.53l0-.08c.17,0,.26-.06.87.14a2.62,2.62,0,0,0-1-1.36c-1.09-.89-2.47-1.27-3.59-2.1s-2-2-3.17-2.88a2.58,2.58,0,0,0-1.4-.6,1.31,1.31,0,0,0-.27.06c.35.41.91.57,1.24,1h0c1.75,1.11,5.59,5.15,7.43,7.09a23.15,23.15,0,0,0,2.36,2.35,5,5,0,0,1-.67-1.11c.13,0,.13,0,.56.33S1090.05,244.57,1090.14,244.52Zm-85.65-26.37c0,.06,0,.11.29.19a1,1,0,0,0,.14-.16.48.48,0,0,0-.09-.11.45.45,0,0,1,.1-.13c.62.95,1.33,1.12,2.2.54-.22-.45-.59-.8-.79-1.26a2,2,0,0,0,1.36-1.2c.33.15.73-.08,1.68-.64s2.23-.46,3.31-.8a3.34,3.34,0,0,0,.44-.17,12.9,12.9,0,0,0-2.22-.16,3.82,3.82,0,0,0-1,.14c-.22.07-.37.26-.58.34-.77.26-1.58.37-2.33.66.13.18.07.25-.46.51,0,0-2.4,1.52-2.36,1.84.19.11.42.09.6.23C1004.59,218,1004.54,218.06,1004.49,218.15Zm85.26,42.36,0,.05,0-.05Zm-126-25c-.71.47-.71.47-2,1.95,0,0-.12.41.23.41a1.57,1.57,0,0,0,.67-.27,3.29,3.29,0,0,1-.32.24c1.49-.74,1.79-.4,1.88,0,.19-.64.85-.82,1.23-1.28s0-.54-.2-.52h-.19c.28-.33.7-.82.61-1,.36.14.93-2.42.92-2.46l-.08-.09c.83-.35,2.2-1.54,2.24-1.95-.11-.13-.28-.05-1,.27a10.8,10.8,0,0,0,1.51-1.21l-.31.29a5.38,5.38,0,0,1-2,1,2.49,2.49,0,0,0,.15-.28h0a4.2,4.2,0,0,0,.88-.84c-.17,0-.28.1-.64.41-.52.44-.52.44-.53.47a3.78,3.78,0,0,0-.59.62c.2-.19.39-.4.59-.6v0l0,0a.27.27,0,0,0,.13,0,3.9,3.9,0,0,0-.57.69c.1,0,.14,0,.22-.18v0c.07,0,.11,0,.35-.16,0,0-1.41,1.19-1.49,1.28s.81-.46,1.1-.69a6.53,6.53,0,0,1-.81.71l.15-.14a3.3,3.3,0,0,0-.91.77,3.9,3.9,0,0,0,.42-.32,2,2,0,0,0-.43.57c.06,0,.17,0,.87-.67-.56.61-.66.74-.68,1s.08.09.43.1a2.71,2.71,0,0,0-.8.92l0,0,.09,0A5.25,5.25,0,0,1,963.77,235.46Zm131.2,8.2a1.55,1.55,0,0,0-.18-.5l0,0v0a.78.78,0,0,0,0,.33l-.08,0C1094.78,243.53,1095,243.76,1095,243.66ZM974.06,222c-.21.07-.44,0-.65,0a2.78,2.78,0,0,0-.82.57c.2-.2.26-.28.27-.35s-.59.2-1.25.7a8.88,8.88,0,0,0,1.26-1.21h0c-.16.12-.39.31-.67.56a.23.23,0,0,0,.07-.13s-.08,0-.6.46a.08.08,0,0,0,0,0s-.06,0-.4.24h0s0,.1,0,.15l0,0-.16.11a.1.1,0,0,0,0,.08l0,0s-.79.3-.77.51c0,0,0,0,.11,0-1.19.87-.67,1-.67,1a4.1,4.1,0,0,0,1.89-.71c.17-.11.38-.25.54-.37a5.65,5.65,0,0,1,.82-.64l0,0C973.08,222.91,973.14,222.75,974.06,222Zm115.77,38.59h0l0-.05ZM967.26,225.14h0l-.07,0,.55-.47C967.53,224.9,967.36,225,967.26,225.14Zm54.79-12.55v0a6.25,6.25,0,0,1,1.26-.18c-.44.05-.53.16-.62.32a13.68,13.68,0,0,0,1.92.76,1.37,1.37,0,0,0,1.09-.21,2.12,2.12,0,0,0,.27-.25h0s0,0-.22-.09-.2-.16,0-.3a2.41,2.41,0,0,1-1.39-.33,2.75,2.75,0,0,0-1.55-.33c-.29,0-.45,0-.73,0,0,.19,0,.39-.32.32a4.6,4.6,0,0,0,.7.11c-.3,0-.48,0-.74,0C1021.77,212.45,1021.91,212.61,1022.05,212.59Zm24,2.57-.1,0c.24,0,.47,0,.71,0,.81.1,1.59.37,2.4.45a1.72,1.72,0,0,0,1-.09c-.08-.19-1.44-.41-1.46-.41h0c-.34,0-.67-.13-1-.17-.61,0-1.1-.45-1.71-.44-.18,0-.2.07-.21.12S1046,215,1046.05,215.16Zm-19.42-1.46h0a4.73,4.73,0,0,0,1.9-.37l.12-.06a3.13,3.13,0,0,0-1.73-.6c-.68,0-.77.77-.55.94A.34.34,0,0,0,1026.63,213.7Zm26.44,1.81a.14.14,0,0,0,0-.06,3.33,3.33,0,0,0-2-.59,2.47,2.47,0,0,0-.85.19,2.13,2.13,0,0,1,.71.2C1051.71,215.51,1052.87,215.91,1053.07,215.51Zm40.36,24.93a.33.33,0,0,0,0-.1,1.52,1.52,0,0,0-.42-.45h0a2.21,2.21,0,0,0,.25.39C1093.28,240.34,1093.4,240.48,1093.43,240.44Zm.79,1.53a0,0,0,0,0,0,0,.27.27,0,0,0-.16-.09v0C1094.09,242,1094.2,242,1094.22,242Zm.69,2.48,0,0h-.09c-.09,0-.11.13-.09.31a.19.19,0,0,0,0-.07s0,.05.24.57C1095.05,245.14,1095.17,245,1094.91,244.45Zm-.44-2s0,0,0-.05h0c-.06-.07-.13-.14-.17-.14S1094.41,242.42,1094.47,242.44Zm-86.74-30.12s.49.11.49.11a1,1,0,0,0,.33,0c0-.06,0-.07,0-.11l.12,0c.42.17.42.17,1.29-.2.1.29.1.29,1.62-.23l-.06.11c-.1.1-.11.11-.12.15a1.27,1.27,0,0,0,.27,0l0-.1v0c0-.12,0-.14,0-.18-.18-.08-.23-.09-.69-.05a1.81,1.81,0,0,0,.21-.18c-.3,0-.57.15-.86.17,0,0,0,.13.3.12-.17.06-.36.09-.53.15h0a4.13,4.13,0,0,0-.92.17l0,.08a1.2,1.2,0,0,0-.33,0c.2-.07.32-.11.48-.18a2.53,2.53,0,0,0-.71-.1,2.6,2.6,0,0,0,.53-.14c.19,0,.64.17.69,0a.12.12,0,0,0,0-.05c-.12,0-.26,0-.39-.06-.32-.15-.36-.14-.4-.14s0,0,0,.17a5.15,5.15,0,0,1-1.29.24l-.09.05s0,.06,0,.09-.05,0-.18,0a.26.26,0,0,0,0,.11h0a1.79,1.79,0,0,0-.58,0,.55.55,0,0,0,0,.22A5,5,0,0,1,1007.73,212.32Zm86,28.63a.59.59,0,0,0-.09-.11h0s0,.1.12.31A.21.21,0,0,0,1093.71,241Zm-89.16-28.77a3.94,3.94,0,0,1,1,0c-.25,0-.25,0-.28.06s0,0,0,0a2.49,2.49,0,0,1-.42.06c.09.2.35.21,1,.06a.67.67,0,0,0-.15.06.37.37,0,0,0,.18,0c0,.07-.16.2.12.17a2.92,2.92,0,0,0,.49-.12h0a.92.92,0,0,0-.62-.05.62.62,0,0,0,.25-.11h-.08l.61-.16c0-.14,0-.36-.73-.35a5.38,5.38,0,0,0-1.62.37l.21,0Zm81.35,159.87c-.32.18-.62.36-.94.53.94-.65.94-.65,1-.76l-.25.07c-1.7.94-3.25,2.14-5,2.93a28,28,0,0,0-3.19,1.49c-1.37.77-1.5,1-1.53,1.08.63.25,7.61-3.71,9.48-5Zm-.9.69a37.72,37.72,0,0,0,5.72-3.78l.07-.06c-.3.1-.49.38-.77.5.09-.14.09-.14,1.74-1.57l-.76.59.35-.32C1089.73,369.48,1085.06,372.71,1085,372.74Zm8.85-7c-.78.66-1.49,1.39-2.26,2.06a2.83,2.83,0,0,0,.28-.2l-.1.11c.76-.7,1.51-1.42,2.28-2.11ZM1081.66,223.3l0,0h0Zm0,0h0Zm-121.21,14.3c.24-.1,1.52-.71,3.52-3.15.2-.25.83-1,.4-1h-.09c-.78.25-1.31.93-2.06,1.25a1.13,1.13,0,0,1-.55.69c.15.17-.12.48-.82,1.17C960.44,236.91,959.31,238,960.41,237.57Zm118.65,129.31h0a.12.12,0,0,0,0,.05ZM1098.59,355l.14-.18h0Zm-6.82,12.66-.42.4A3.36,3.36,0,0,0,1091.77,367.7Zm-14.35,4.47c-.22,0-.45,0-.68,0a2.85,2.85,0,0,0-1.53.55c-.94.61-1.72,1.42-2.6,2.1a4.63,4.63,0,0,0,2.43-1.1c1.17-.78,2.1-1.4,2.32-1.5Zm-80.67-99.85c.28,0,.35,0,.37,0s-.09-.09-.2-.09A.19.19,0,0,0,996.75,272.32Zm-22.88-15.14h0Zm-13.66-5.58v0a7.11,7.11,0,0,1-.25.8c-.31.92-.83,2.45-.39,2.17a7.61,7.61,0,0,0,1.49-2.29c.45-1,.18-.94.1-.94a2.31,2.31,0,0,0-.63.28C960.22,251.83,960.22,251.81,960.21,251.6Zm-10.54,3,0,0h0Zm11.43-3.5a12.8,12.8,0,0,0,1-1.7c.15-.32.26-.59.3-.68l-.09,0a4,4,0,0,0-1.13,1.53h0C961,250.68,961,250.87,961.1,251.07Zm130.16,49.24a2.16,2.16,0,0,0-.34-1.37l-.06.11c-.17.39-.44,1.05-.34,1.19,0,0,.09,0,.27-.28-.8,1.35-1.67,2.73-1.75,2.84h0l-.11.17a5.88,5.88,0,0,0-.61,1.26C1089.48,303.62,1091.15,301.92,1091.26,300.31Zm5.37,15.54a1.73,1.73,0,0,0,0-.6l-.52.11c-1.37.28-2.78.36-4.14.69a1.32,1.32,0,0,0-.83.51,3.12,3.12,0,0,0-.23.43c-.3.68-.42,1.41-.65,2.11-.45,1.33-1.49,2.36-1.89,3.72s-.07,2.77-.3,4.15a1.69,1.69,0,0,1,1.19,0s.75-3.77,1.38-4.38c.28.4.32.46.17,1.7-.22,1.73.71,1.4.9,1.32a2.93,2.93,0,0,0-.23,1.39l.1.06a3.21,3.21,0,0,0,1-2.2,1.24,1.24,0,0,0-.53.32c.23-1.43-.39-2.76-.43-4.16.88,1.12,1.38-1.53,2.43-1.79h0c-1.15-.22-2.32.45-3.46-.09-.45-.21-.26-.57.67-1.23a3.32,3.32,0,0,1,2.89-.49c1.09.14,1.17.06,1.63-.39,0,.08-.13.17-.18.24C1096.54,316.15,1096.54,316.15,1096.63,315.85Zm2,6.84c-.51,0-1.25.31-.64.84.08.07.18.13.24.18l0,0h0s0,0,0-.05c.88.49,1.78.53,2,.1a.49.49,0,0,0-.12-.61,1.12,1.12,0,0,0,.16.33A2,2,0,0,0,1098.67,322.69Zm-5-24.64h0s0,0,0,0S1093.71,298.05,1093.72,298.05Zm.42,21.18h0l-.06,0Zm-.57-18.76c.21.48,1.09-.31,1.1-.32a.7.7,0,0,0,.25-.43c0-.21-.06-.3-.31-.59a6.25,6.25,0,0,1-.78-1s0,0-.11-.1v0a3.11,3.11,0,0,1-.07.53A5.26,5.26,0,0,0,1093.57,300.47Zm-2.83,30.59.45.13,0,.07-.49.11c.08.1.08.1.4.22l0,0c.32-.09.61-.25.93-.34l-.07.15a.94.94,0,0,0,.38-.11c.12-.09.13-.25.24-.34a.3.3,0,0,1,.08,0l-.07,0h0c-.14,0-.28.07-.41,0a2.51,2.51,0,0,0-.63.12c-.35-.4-.86,0-.86,0a7.77,7.77,0,0,0-3,0c-.48.09-.88.39-1.37.46a4.55,4.55,0,0,1-1-.12.53.53,0,0,0,.29.24c-.3.22-.42,0-.65-.25a2,2,0,0,0-.92.14c-.17-.54-.45-.66-.57-.66-.5.16-.16.59.34,1.23l0,0c.81.23,1.62-.15,2.43,0-.24-.6,2.84-.26,2.87-.26l0,.08C1089.59,331.57,1090.13,331.23,1090.74,331.06Zm-15.22-.86h0a17.74,17.74,0,0,1-4.38-1.45c.85-.27,1.49-.94,2.31-1.27,1.37-.2,2.21,1.22,3.54,1.18,1.14-.05,2.22-.57,3.38-.45l.27,0c.78.16.88.54,1,.87a1.57,1.57,0,0,1-1.58.29c.33.54.39.63,1.43.79,1.58.25,1.4.86,1.31,1a.26.26,0,0,1-.07.11c-.2.22-1.23.63-1.23-.39-.19.72-1.65.35-6-.75Zm4.48-.83h0Zm-4.37.83h.21a1,1,0,0,0-.3,0Zm19.11.78c.08-.17-.09-.15-.29-.13a7.25,7.25,0,0,0-4.37,3.41,9.47,9.47,0,0,0,1.58-.75h0A11.86,11.86,0,0,0,1094.74,331Zm-9.87-7.05s.92-.29.17.62a4.74,4.74,0,0,0,.64-.9c.43-.86.32-1.86.73-2.71.5-1.05,1.45-1.8,1.92-2.87a2.61,2.61,0,0,0,.25-1.61c.61.75.86.31.94.09.21-.55.15-1.65-1.32-3.77a1.24,1.24,0,0,0,.33.18s0,0-.46-.82c.2,0,.84,0,.66-.66l.06.08.08,0a3.53,3.53,0,0,0-.14-.64c.5.45.82-.13.79-.5a1.12,1.12,0,0,0-.12-.35h0l0,0c.16-.18,1.55-1.76.78-1.78a2.86,2.86,0,0,0-1,.34c.2-.14.2-.14.26-.25-.16-.07-.16-.07-.62,0,.49-1.09-.34-1.61-.54-1.6a.53.53,0,0,0-.29.22v-.1s-1.47.08-2,3.72a.76.76,0,0,0-.27-.61,5.37,5.37,0,0,0-.53,1.45c-.48-.11-.31-.79-.78-.91-.56,1.53-3.06,3.63-3.41,3.09l0-.09a5.54,5.54,0,0,0-.5,2.17c-.49-.39-1.6-.2-1.53-1.08a2.88,2.88,0,0,0-1.09,3c0,.06.78,5.77,1.76,5.83.29,0,.57-.46.7-.69.17,1,2.26,1.07,2.87.75C1082.8,324.74,1084.24,324.22,1084.87,323.93Zm-3.33-43.38a.41.41,0,0,0-.07.11l.07-.11Zm7.57-3.31c.4-.72.53-1,.46-1.29l0-.07a1.44,1.44,0,0,1,.2.72,7.48,7.48,0,0,1-.23,1.77,4.35,4.35,0,0,0-.14,2.23,2.36,2.36,0,0,0-.62-.61l0,0-.12-.11a.34.34,0,0,1,.12.06C1088.19,279.22,1088.41,278.49,1089.11,277.24Zm-.11,2.93-.16-.16v0l.12.1Zm0-.06-.06,0h0Zm.66.88h0c-.1-.14-.2-.27-.31-.4v0A.87.87,0,0,0,1089.67,281Zm-18.3,47.55h0c-.06-.07-.1-.11-.12-.11s0,0,0,0S1071.3,328.6,1071.37,328.54Zm-10.73-19.65Zm11.37,6.93Zm-11.26-25.29-.19-.31c-1.65,1.06-1.65,1.06-2.11.45a6.12,6.12,0,0,1-.92-2.79c-.37-2.7-2.58-4.28-3.87-6.43-.15-.25-.33-.6-.48-.85s-.39-.55-.56-.79c-.23,0-.54.05-.77.06-.14,1.12-.14,1.12-.58,1.63a4.3,4.3,0,0,1-.39-.65,1.73,1.73,0,0,1-.47.5,2.25,2.25,0,0,0-.73-.08l-.25.31-.24-.25-.29.19a1.16,1.16,0,0,1-.28-.64c-1.73,4-6.32,5.55-8.07,9.51s-.56,8.23-2.46,12a4.4,4.4,0,0,1-1.19,1.72c-2.19,1.31-12.15-16.66-9-22.63l-.33-.23a2.77,2.77,0,0,0-.16-.69l-.34-.09a2.39,2.39,0,0,1,.2.43c.28,1.1-1.19,2.23-2,2.1-1.59-.24-1.31-2.12-2.43-2.77,1.11-.13,1.25-.46,1.38-.79a4.23,4.23,0,0,1-3.08-1.09c-2-1.68-2.26-2.72-2.35-3.06-3.6-1.92-7.69,1.25-11.25-1.09-.35-.23-.8-.55-1.16-.77-1.68-1-3.63.1-5.33-.72-2.13-1-1.93-4.12-4.32-4.92a2,2,0,0,0-.49-.05,7.76,7.76,0,0,1-1.37,1.18h0c.84.21,1,.4,1.32,2.05l2.55,5.48c1.4,1.55,6.52,1.41,6.76-2.77,1,1,.18,2.55,1,3.63s2.45.82,3.19,2a2.29,2.29,0,0,1,.17,1.44c-.27,1.39-2.23,5.16-7.64,9.44-.11.08-10.62,8.35-13,6.11l-8.71-22.85c-.1-.26-.24-.6-.33-.87a7.08,7.08,0,0,1-.27-3.78,3.55,3.55,0,0,0-1,2.92,6.45,6.45,0,0,1-1.52-3.66c-1.08,1.87-1.18,3.26,1,7.08,1.62,2.88,1.62,2.88,4.06,11.64,1,3.73,2.14,5.72,3.93,7.11.84.66,2.42,1.87,2.76,2.69.45,1.07,0,1.45-.9,2.14,4.44,1.67,4.44,1.67,5.55,1.34,5.78-1.73,5.78-1.73,5.84-1.42s1,6.3-8.17,17.83-2.35,17.75-2.27,17.81,0,.32-.05.46c.15,2.23,1.6,4.1,1.72,6.34.15,2.8-3,3.31-3.78,5.48-1,2.81,2.48,4.48,1.84,7.2a3.58,3.58,0,0,1-1.54,2c1.34,1.27,2.61,2.47.93,6.92s-5.39,3.22-5.43,3.21c-.73-.33-9.47-9.62-9.84-10-2.74-2.91-8.45-11.56-8.48-11.62-1.54-3-1.14-6.45-2.47-9.48l-.14-.28c0-.05-3.44-5.75-2.74-7.15-2.22-1.09-6.68-6.52-5-9.57-1.92-2.08.09-5.42-2.37-7.32l-.32.3-.42-.14a1.26,1.26,0,0,1-.69.39c-3.43-3.44-3.43-3.44-4.4-2.72-4.6,3.42-5.16,2.1-6.1-.08a63,63,0,0,1-2.78-15.09c-.24-3.58,1.2-7,1.1-10.54l-.07.44c.53-7.52,8.61-20.73,8.69-20.85,1.24-1.81,1.8-2.5,2.15-2.65s.83.23,1.25.32.54,0,2.06-1a7.78,7.78,0,0,1,2.76-1.45A27.69,27.69,0,0,1,959,257c.8,0,1.33,0,.58,1.65-.53,1.17-1.44,2.17-1.59,3.51.35,2.45,6.21,7.08,7.3,3.55.5-1.63,1.12-2,1.55-2a3.11,3.11,0,0,1,.61,0c1.77.33,2.84,2,4.55,2.43s3.11-.94,4.77-.57a3.53,3.53,0,0,0,.49.78c2.44-.3,3.5-2.47,4.35-4.22,1.63-3.51,1.07-4.23.86-4.36,0,0-4,.11-4.86.16a7.43,7.43,0,0,1-3-.32c.05-.1.12-.24.18-.34a3.58,3.58,0,0,0-.86-.13,7,7,0,0,1,.36-2c-1.06-1.14.45-2.17.31-3.29a1.81,1.81,0,0,0-2.28-.11,1.88,1.88,0,0,0,.15.88,4.38,4.38,0,0,0-.8.1c0,.12,0,.29-.06.41a5.46,5.46,0,0,0-.46-.86c-.29,1.23.63,2.31.45,3.53l-.24-.34a1.11,1.11,0,0,1-.28.69,1.11,1.11,0,0,0-.72-.21l.27.36a8.18,8.18,0,0,1-.64.53c0,.29-.06.68-.09,1l-.35.23a1.63,1.63,0,0,1-.31-2.68.9.9,0,0,1-.94-.81,7.1,7.1,0,0,1,.12-2.32c.32-1.46-.71-2.62-.91-4-.06-.35-.3-.78-.34-1.13a1.8,1.8,0,0,1,.28-1l-.19-.38-.37.13-.37-.19c-1.17.84-1.6,1.16-1.43,2.85s1.89,2.69,2.17,4.37c-.55.22-1.06-.15-1.61-.12v0a6.89,6.89,0,0,1-1.16,3.34c-.83-.1-1.37.72-2.18.68-.66-1.16,1.5-1.15,2.06-1.93,1.73-2.42-.83-6.8-.86-6.84-.87-1.39-2.32,0-3.48,0l-.29,0a27.37,27.37,0,0,0-5.74,6.43c-1.32,2.28-2.69,3.6-4.2,4-.55-.39-.48-1.1-.81-1.61l-.4.11c.78-1.76.78-1.76,1.17-2.5h0l-.09.1c3-6.42,3-6.42,5.6-6.31,1.35,0,4.71-4.06,3.41-6.34a5,5,0,0,1,2-.8c.77-1.93,8.94-6.45,9-6.48l.28.27c.9-1,1.42-2.21,2.31-3.18l.51-.47,0,0a2.28,2.28,0,0,1,1.37-.67,12.2,12.2,0,0,1-2,2.22l.45,0c-.44.68-.44.68-1,.72.06-.12.13-.3.19-.42-.45.72-.42.78-.19,1.21,0,0,.72-.08,1.71-.16l-.33.23c.06.11.14.26.21.37s3.75-.34,4.53-.85a12.27,12.27,0,0,1,3-3.4,1.79,1.79,0,0,1,.57.56c1.33-.16,1-1.6,1.74-2.24.46-.41.46-.41,4.15-.63l-.13-.49-.42-.22-.06-.28c-3.3.59-3.3.59-3.91.38,1-1.52,1-1.52,4.8-4.45-1.54-1.09-2,.22-2.11.65-5.15,2-4.89,3.55-4.77,4.3-5.51,4.8-5.51,4.8-6.86,4.89.05-.15.12-.33.17-.47a10.92,10.92,0,0,1-1.44,1.39l-.37-.17c.7-.26.7-.26.81-1.09,1.54.3,2.52-2.77,2.94-4.08a7.83,7.83,0,0,1-2.55,1.53l-.32-.23c.07-.42.35-.77.36-1.21,1-.87,1.49-2.16,2.74-2.72l1.64-.78c2-1,3.85-2.36,5.81-3.49h0a9.39,9.39,0,0,0,1.28-.88h0l.19-.18a5.81,5.81,0,0,1-.93.15c.73-.44,1.55-.67,2.29-1.06l-.25.3c.95-.07,1.66-.76,2.54-1,0,.12,0,.27,0,.39,1-.25,1-.25,1.12-.4l.44.07c.36-.48.43-.56,1.29-.87l.36.21c-.23.15-.53.35-.75.52a6.74,6.74,0,0,1,2-.57l-.32.23.46-.14.4.23-.91.31,1.45.11.07.38c2.17.47,3,.65,3.21,1.19.31.73-1,1.63-1.61,1.75-1.17.23-2-.68-3.11-.81.69,2.75.69,2.75,1.45,2.56a3.45,3.45,0,0,0-.31-.77c1.58-.05,2.75-1.4,4.36-1.35l.25.32a8.91,8.91,0,0,0,.73-1.81c-.07-.1-.15-.24-.21-.34,1-.54,1.59-.33,1.62.65-.92,0-1.09.06-1.22.77,2.15.18,3.66-1.84,5.81-1.69-.22.15-.49.37-.69.54,3.21-.16,3.68-.4,4.28-.72a13.67,13.67,0,0,0-1.22-.94c5.3,1.58,5.3,1.58,5.51,1.52a2.25,2.25,0,0,1-.82-1.92c.19-.93,1.38-1,1.6-1.9a3.17,3.17,0,0,1,.81.18h.08l.38.13c.55,1.19.33,2.57.94,3.74-.33.86-.36,1-1.52,1.44,2.72-.18,2.42-1.24,2.26-1.81,1.16-.59,1.76.6,2.67.83h0c-1.25-1.08-3-1.57-3.85-3.12.59-.39.59-.39.76-1l.33.23a6.93,6.93,0,0,0,.12,1c.26.12.26.12,1.73.21-.14-.21-.14-.21-1.21-.74l.39.09.3-.24-.33-.21a21.64,21.64,0,0,0,3,.45,2.16,2.16,0,0,0-1.78-1.08h0l.18-.07c1-.26,2.12,0,3.13-.38l-.37-.16c-.22-1.07.33-1.06,2.65-1a1.45,1.45,0,0,1,.71-.38,7.79,7.79,0,0,0,2.26.11l-.33-.25h.36c.41-.53.41-.53,1-.65,4.66-.09,8.42,3.39,13.07,3.31l.22-.32c0-.11-.08-.27-.12-.38,2.3.57,4.27,2.33,6.85,1.81,0-.13-.08-.31-.12-.44,1.16-.38,2.23.21,3.35.31l-.26-.06-.28-.25a6,6,0,0,1,1.16.07l-.9-.39-.14-.37c4.31-.36,4.61-.12,5.72.77,2,1.57,4.22.49,6.32.76,1.85.23,3.72.25,5.58.48a1.86,1.86,0,0,1,.71.3l-.36-.12a10.64,10.64,0,0,0,2.5.72c-1.66-.69-1.66-.69-1.86-1.09,3.65-.2,12.54,2.24,14,3.84h-.4a10.8,10.8,0,0,1,1.85,1.11c-2.12,1.11-3.3-1.08-5-1.43.86.57.86.57,1.17.8l-.21.31a37.52,37.52,0,0,1,4.45,2.31,3.43,3.43,0,0,0-1.28-.27c.08.15.19.36.28.51l-.26.32a4.32,4.32,0,0,1,1.07,1.39l-.18.33a5.06,5.06,0,0,0-2.66-.19c.15,1,2.67,2.41,2.7,2.42a21.45,21.45,0,0,1,4.39,3.46c0,.15,0,.34,0,.48a16.3,16.3,0,0,0,1.4,1.46h0l-.17.07a10.93,10.93,0,0,0,1.32,2.33,3,3,0,0,1,.25.94l-.3-.32h0c-.06-.13,0-.33.06-.47-2.91-3.15-6.79-5.09-10-7.91h0l.26-.4c-1.22-3.34-3.52-4.39-4.17-4.38a14.94,14.94,0,0,0,1.49,1l-.38,0a5.22,5.22,0,0,0,.35.93c-2-1.34-2.18-1.39-3.08-1.6l-.24.27c.09.69.09.69,2.64,2.79a1.26,1.26,0,0,1-2.06.15l.3-.24h0l-.05,0a4.62,4.62,0,0,0-.74-.06h-.39a6.88,6.88,0,0,1-.89-.09l.05,0c-1.19.32-2.48-1-3.61.22-.9,1-1,5.73,3.25,5.81-1.23-1.11-1.23-1.11-1.37-1.49,0,0,1.64,1,1.94,1.86a4.27,4.27,0,0,1,.65-.29,1.79,1.79,0,0,1-.46-.66,4.55,4.55,0,0,1,3.45,1.54l-.37-.05c6.47,3.84,8.11,11.12,7.1,13.3l-.44.15a2.39,2.39,0,0,1-1-.81l-.25.28-.19-.31a2.31,2.31,0,0,1,.17.94l-.39-.07c1.65,1.42.12,3.58,1.2,5.13,1,1.36,2.84,1.68,3.63,3.24a8.83,8.83,0,0,1,.77,2.77,2.91,2.91,0,0,0-.7.19c0,.1,0,.25,0,.35-2.14.82-3-3.23-2.92-3.62l.29.23c-.1-.62-.16-.8-1.14-1.3l0,0h-.1l0,0c-.7-.25-1.46-.3-2.15-.6a1.19,1.19,0,0,1,.08-.79c-.87-.41-1.23-1.57-2.37-1.56s-.52,1.61-1.58,1.58a1.3,1.3,0,0,1-.37-.11c-.11-.88-.22-.91-.67-1.05a1.3,1.3,0,0,0,.25-.42c0-.32-.48-1.7-1.45-1.31,0,0-2.81,1.92-1.48,3.39,1.64,1.82,4.07.59,5.92,1.55-.18,1-1.26,1.55-1.13,2.66,0,.43.1.76,1.78,2.63a29.69,29.69,0,0,0,3.75,3.47l-.29.2c-.58-.26-.94-.87-1.59-1a3.09,3.09,0,0,1,1.71,2.55l-.23.25c1.61.35,1.61.35,1.92,1.53a1.48,1.48,0,0,1-.22.29c.41.88.4,1,.32,1.55l-.36,0a9.06,9.06,0,0,0,.05,4.14h0l.12-.12a3.4,3.4,0,0,1-1.34,2.69c-1.17,1.16-2.84,1.56-4.07,2.62a1.27,1.27,0,0,0-.67-.89c.39.81.46.95-.49,2.19,0,0-2.26-1.78-2.74,2.2.81.67,1.16,1.29.78,2.84a2.27,2.27,0,0,1-2.15,1.45c.13-.23.3-.55.42-.79.14-3.13.14-3.13.64-3.45,0-.45,0-1.5-.67-1.81-.37-.17-4.5.2-4.22,2.52.52,4.35,5.2,6.44,5.8,10.74.22,1.53-.4,6.79-2.69,5.1-.07,1.13-1.12,4.11-2.65,3.31l.51-.82c-.84-3.37-4.61-4.46-5.85-7.51-2.68,1.79-1.83,6.13-1.72,6.61.43,2,2.21,3,3.26,4.6,1.8,2.68,1.24,6,2.5,8.86.06.13.25.22.36.31-2.65.49-3.62-1.68-4.68-6.43-.88-4-1.32-5.29-2.79-4.13a8.53,8.53,0,0,1-.19-4.28,18,18,0,0,0-2.87-12.23C1061.52,290.19,1061.22,290.32,1060.75,290.53Zm-65.43-43c.26.11.26.11.6,0-.89,1.36-.7,2,1,3.36,1.06.87,1.31,1.17,1.41,1.73-1.19-.18-1.76,2-1.67,2.7.14,1.17,1.18,1.73,2,2.18.24.14.25.17.27.27h0v0c1.18.71,2.16-.49,3.29-.33h0c0-4.19-.09-6.71-1.88-8.47-1.26-1.24-1.3-1.52-1.37-2a1.37,1.37,0,0,1,.73-.36c-.3-.66-.3-.66,1.71-1.07-.31-.24-.36-.31-.21-1,.11-.49.27-1.22-1.24-1.29s-2.24,1.75-3.68,2a.56.56,0,0,1-.45-.24C995.86,245.9,995.13,246.6,995.32,247.51Zm-11.05-3c-.36.62.36.74,2.28,1.07.16-.44.44-1.17,1-1,0-.24,0-.28-.27-.41s-.25-.16-.24-.42a1.84,1.84,0,0,0,1.36-.39l.16-.13c-.94-.49-2.69.12-3.92,1l.09-.1a3.46,3.46,0,0,0-.38.32l.13-.12-.13.12h0l0,0Zm2.14,7.27a2.91,2.91,0,0,0,2.65-1.18c.83-1.15-.76-3.12-2.79-4.36-1.44-.88-2.88.74-4.33,0-.07-.31-.07-.31,1.22-1.44-1.07-.58-1.78-.89-2.76-.41l-.13-.15.07.13,0,0a6.66,6.66,0,0,0-2.23,2.78,6.27,6.27,0,0,1-1.87,2.29,1.61,1.61,0,0,1,.64.76c.2.39.5,1,.82,1.06,1.8.41,3-1.54,4.85-1.13C984,250.42,985,251.6,986.41,251.73Zm55.13,51.94s-.11.07-.23.2c.12.26.15.29.16.26a.27.27,0,0,0,0-.12l0,0,0,0a.34.34,0,0,0,.07-.19S1041.61,303.67,1041.54,303.67ZM1072,315.82h0Zm43.21,9.24h0c.44-1.52.33-3-.07-2.95-.1,0-.17.09-.28.26s0,.15,0,.35a.09.09,0,0,0-.05,0,.24.24,0,0,0-.11.18s0,0,.14-.08a16.31,16.31,0,0,1-.06,1.93c0,.09-.15.16-.2.23a14.07,14.07,0,0,1-.73,1.25c-.18.22-.28.19-.35.14-.3-.23-.45-.35-.91.11-.08.07-.08.07-.26,1,.06,0,1.37.7,2.43-2.38,0,.47,0,.62,0,.7h0v0a1.15,1.15,0,0,0,.29-.49l.07-.18v-.06l0,0Zm-73.91-21a14,14,0,0,1-.19,3.88c-.53,1.88-1.71.15-1.72.13-.51-.89-.28-1.94,0-3.16s.42-2.11,0-2.81a.29.29,0,0,1-.27-.27l.11.06,0-.06a.39.39,0,0,1,.27-.1c.13,0,.81,0,1.62,1,.21.26.52.75.23,1.14C1041.27,303.89,1041.26,303.91,1041.33,304Zm-1.37-1.82c-.19-.23-.29-.11-.29-.11s-.05.13.11.13l.16,0Zm67.92,18.51c-1.74,0-1.91,2.26-3.5,2.51-.64.1-.27-1.9-.27-1.92l0,.09c.21-1.86.3-2.71-.94-2.58a3,3,0,0,0-1.63,1.14c.1-.58-.09-.71-.18-.77s-.15.06-.28.28c.74,1.26,1.38,2.36,2.57,2-.44.57-1.2.52-1.74.9h0c.78.67-.2,1.5.21,2.2.15,0,.26,0,.85-1.14a1.5,1.5,0,0,0,.18,1.21c.31.44.88.49,1.25.84.58.54.58.61.72,4.3-.08-.2-.33-.78-1.53,1.54.62-.28,1.31-.26,1.93-.53-.63,1.79.67,1.71.78,1.65s1.24-.93,1-1.35l-.08,0h0c.6-.29.6-.29.72-.41v-.11l0,.08a2.08,2.08,0,0,0,.38-.72c.15.55.74.83.87,1.39.22.89-.26,1.81.13,2.69.47,1.08,1,.56,1,.55a2,2,0,0,0,.27-.92c.16-1.05-.32-2.07-.18-3.12s.88-2,1-3.07a3.64,3.64,0,0,0,0-1C1111.44,326.35,1109.91,320.69,1107.88,320.72Zm-36.9,6.46a2.83,2.83,0,0,1-.13-.37h0c.33-.16.74,0,1.06-.24a2.41,2.41,0,0,0,.92-1,5.91,5.91,0,0,0-.22-3.81c1,1.64,1.19,2,2.13,1.51a.42.42,0,0,1,0-.71c.06,0,.15.1.2.06l-.16-.17h0l-.08-.07h0c-1.8-1.73-1.8-1.73-2.47-1.27a24.22,24.22,0,0,1-1.74-3.05c-.25-.64-.1-1.36-.42-2-.22-.45-.45-.53-.92-.69a.63.63,0,0,0-.12.51,2.53,2.53,0,0,0-.67-.64c.19.08.19.08.34.05.18-.66-.77-1.44-.78-1.45-.75-.61-1.69-.93-2.44-1.56-1-.79-1.58-1.91-2.61-2.63a3.56,3.56,0,0,0-2-.74l-.26,0c1.46.29,3.72,5,6.66,11.9C1069.33,325.56,1070.25,327.64,1071,327.18Zm30.85-4.76,0,0h0Zm3.83,12.35c-2.23,2.87-3.11,6.58-5.73,9.2-1.52,1.51-1.9-1.55-1.9-1.58-.06-.92-.06-.92,2.67-6-.17.18-.17.18-.68.67,0-.33.21-.61.24-.94-.33.72-.33.72-2.82-.83-1,1.85-1,1.85-1.45,2-1,.28-2.5,1.48-3.13,3.93-.48-.25-.55-.27-1.24,0,.09-.89-.91-1.13-1.1-1.85-.13.16-2.7,2.79-4,3.3h0a3.4,3.4,0,0,1-.36,1.31l-.07-.2c-.2.19-.2.19-.4.65a5.42,5.42,0,0,1,.21-1.52,8.82,8.82,0,0,0-2.43,2.23,7.83,7.83,0,0,1-2.37,2.18c-1.13.63-2.45.75-3.62,1.27-1.47.66-2.53,2.11-4.27,2.27a1.1,1.1,0,0,1,.13-.56c-2.52,1.3-3.27,4.16-3.59,5.38-.16.63-.16.63-.37.84a1.26,1.26,0,0,0,0-.43c-1.6,1.87-1,4.55-2.42,6.49-.86,1.19-2.27,1.87-3,3.19a1,1,0,0,0,0,.34c.74.61,2.82-.21,4.34-.82.09,0,10.06-3.69,11.88-2.34,0,.34,0,.34-1.75,3.41,1.35-.93,2.81-1.68,4.08-2.74-.82,1.6-2.59,2-3.86,3,.53-.07.72-.2,2.15-1.24a22.27,22.27,0,0,1-1.68,1.48l0,0,.2.08c-.4,1.24-2,1.62-2.19,3.05.2.17.2.17,2.7-.63a1.58,1.58,0,0,1-.63.44h.23c-.1.28-.1.28-.49.73a54.83,54.83,0,0,0,19.2-14.88l-.39.45.67-.81-.14.17.07-.09,0-.05.2-.24-.14.16a12.44,12.44,0,0,0,1.66-3c.47-1.25,1.06-2.46,1.49-3.73s.1-2.35.64-3.44c2.17-4.32,2.17-4.32,2.24-5.85.1-2.69.61-3.49,1.26-4.49h0Zm-9.5-10.72a.71.71,0,0,0,.94-.35.47.47,0,0,0,0-.19h0a.79.79,0,0,0-.85-.6.44.44,0,0,0-.37.41C1095.9,323.47,1095.85,323.88,1096.16,324.05Zm-5.46-37.26v0Zm3.35,19.62h0a1.47,1.47,0,0,1-.15.17A1.68,1.68,0,0,0,1094.05,306.41Zm4,.15c0,.95.08,1,.26,1.13.07-.26.15-.61.19-.87,0,0,.48-3.59-.76-5.09v0c.13-.07.13-.07.08-1.13-.08.21-.17.42-.24.64a2.93,2.93,0,0,0,.05.29c-.41-.28-.41-.28-.52-2.23.86.37.6-1,.35-1.55-.33-.78-.43-.77-1.2-.67-.58-2-.58-2-.83-2-.14.11-.14.11-.2.37a1,1,0,0,0-1.42-.74.64.64,0,0,0-.14.36,5.84,5.84,0,0,1-.1-1.05h0a2.16,2.16,0,0,0,0-.44s0-.11,0-.17c-.08-1.64.44-3.3-.21-4.92-.48-1.2-2.14-.41-2.65-1.56l0-.05a.52.52,0,0,0,.06.13c.19,1.42-.41,2.89.27,4.28a.59.59,0,0,0-.36.09,3.49,3.49,0,0,0,1,3c.28-.16.32-.34.14-.67.39.26.39.26.21,1.64l-.27,0c-.21.54.08.87,1.17,2.1.64-.78-.12-1.64-.63-2.08a2.1,2.1,0,0,1,1.07-.05.38.38,0,0,0,.22.55c.11-.05.24-.11.09-.47.68.23.93.94,1.47,1.32a1.09,1.09,0,0,0-.44-.77c0-.2.06-.84.71-.15a6.13,6.13,0,0,1,.84,1.26h-.1c-.09.56-.09.56.81,1.83-.19.16-.32.2-.47,0l.11,0a.55.55,0,0,0-.1-.42c-.09.09-.14.13-.06.39l-.06-.13a2.18,2.18,0,0,0,0,1.51l-.06,0a3.8,3.8,0,0,0,.31.58l.91,1.61c-.2.65-.2.65-1.62,2.23a1.15,1.15,0,0,1,.06-.17c-.21-.35-1.38-.29-1.6.5a8,8,0,0,1-.33,1.47,3.59,3.59,0,0,0,.63-1c.44.59,1.61-.47,1.62.31,0,.57-.38,1.1-.19,1.69s.8.75,1.09,1.23C1097.2,307.82,1097.86,307.29,1098,306.56Zm-3.56-4c.21,0,.66-.72.85-1.12,0,0,.11-.62.13-.93.08-1-.37-.88-.37-.88C1094.63,300,1094.09,302.52,1094.48,302.55Zm.58-4.61a3.18,3.18,0,0,0,.38-1.14v-.05a1.9,1.9,0,0,1,.61,1.41,1.1,1.1,0,0,1-.07.3c-.27-.61-.58-.69-1-.27h0v0a.68.68,0,0,0,0-.14c0-.17,0-.19,0-.2S1095,297.88,1095.06,297.94Zm.06,0h0v-.06Zm-4.43-11.17h0S1090.69,286.75,1090.69,286.75Zm8.77,29.35-.21.31c.06-.46,0-.93.07-1.39s.06-.38.22-.53l-.1.05c-.31.25-.64.69-.79,2.16l-.05-.09a12.17,12.17,0,0,0,.09,2.12c.13.72.3.75.42.71-.43-1.82.75-1.78.77-1.78a3.25,3.25,0,0,1,.24-2.18C1099.89,315.41,1099.43,315.94,1099.46,316.1Zm-58-11.81,0,0-.18-.46,0,.16C1041.37,304.12,1041.42,304.2,1041.46,304.29Zm-39.64,36.65-.07-.15a.19.19,0,0,0,0,.08c-.11-.25-.11-.25-.24-.31a6.76,6.76,0,0,0-.08,1.72h0a2.15,2.15,0,0,1-.28-.64c-.42,1-.43,1.54-.11,4.16.39,3.26-.22,9.63-2.09,9.76-.65.05-1.94-.89-2.39-2.41s-1-8.87-1-8.92c.06-1,1-1.29,1.54-2,.14-.2.19-.46.34-.66s.2-.22.29-.31c.74-.76.83-1.85,1.36-2.71A6.7,6.7,0,0,1,1000,337c.57-.16,1,1.17,1.3,2.32A7.21,7.21,0,0,0,1001.82,340.94Zm-.17-.37a.77.77,0,0,0-.08-.19l0,.09Zm89.06-53.75,0-.08a.14.14,0,0,0,0,.07Z" transform="translate(-867.71 -133.7)"/><path class="cls-4" d="M1080.17,386.82s4.74-1.64,7.4,5.78c.65,1.81-21.41,9.8-22.48,10.18l-.08,0-32,8.63a1.12,1.12,0,0,1-1.38-1.3l1.63-8a1.13,1.13,0,0,1,.76-.85Z" transform="translate(-867.71 -133.7)"/><path class="cls-5" d="M1014.83,418.43S1082,392,1083.2,390s-.56-8.86-7-8.79c-6.12.07-18.75,5.22-20.12,5.78a.72.72,0,0,1-.25.07l-21.47,3.42h-.11L990.78,393a1.1,1.1,0,0,0-.8.41l-14.13,17.37a1.11,1.11,0,0,0,.64,1.79C983.9,414.08,1011.83,419.62,1014.83,418.43Z" transform="translate(-867.71 -133.7)"/><path class="cls-6" d="M964.21,411.21c-1.92,1-17.31,9.54-21.38,11.79a1.12,1.12,0,0,1-1.52-.45l-13.93-26.08a1.12,1.12,0,0,1,.43-1.49c5.11-2.89,29.22-16.52,31.37-17.39,2.4-1,6.38-6.45,30.06,1.08s21.56,6.11,21.56,6.11,23.79-.53,29.83,3.78,4.69,14.27-6.81,15.09c-10.55.75-24.6-2.4-26.88-2.93a1.13,1.13,0,0,0-.63,0L975,412.1a1.11,1.11,0,0,1-.65,0C972.83,411.74,966.17,410.16,964.21,411.21Z" transform="translate(-867.71 -133.7)"/><polygon class="cls-7" points="47.84 260.24 67.96 299.45 91.1 288.97 70.99 249.76 47.84 260.24"/><path class="cls-8" d="M1028.35,400c-1.48-.71-1.7-1.88-1.44-3.49s.29-6.5,1.06-7.08,12.57-2,14.46,4.69c1.56,5.5-5.52,6.19-7.1,6.29C1034.91,400.42,1029.13,400.36,1028.35,400Z" transform="translate(-867.71 -133.7)"/><path class="cls-9" d="M1076.89,393.08a1.11,1.11,0,0,1-1.31-1.74l0,0c1.2-1.21,6.21-2.82,6.89-2.62s.68,1.47.68,1.47Z" transform="translate(-867.71 -133.7)"/><path class="cls-9" d="M1079,397.37s-.33-.84.7-2,7.48-3.63,7.57-3.42c0,.06.08.19.14.34a1.11,1.11,0,0,1-.48,1.37A68.86,68.86,0,0,1,1079,397.37Z" transform="translate(-867.71 -133.7)"/></svg>